# xmcd CD database file
#
# Track frame offsets:
#	150
#	30748
#	49383
#	80958
#	98393
#	118883
#	138088
#	159470
#	177780
#	191855
#	201483
#	226058
#
# Disc length: 3271 seconds
#
# Revision: 2
# Processed by: cddbd v1.5.2PL0 Copyright (c) Steve Scherf et al.
# Submitted via: CDex 1.51
#
DISCID=a30cc50c
DTITLE=Phil Upchurch - Whatever Happened To The Blues
DYEAR=1992
DGENRE=Jazz
TTITLE0=6 To 4
TTITLE1=The Tide Keeps Lifting Me
TTITLE2=Angel Eyes
TTITLE3=Blues March
TTITLE4=Love And Peace
TTITLE5=All Blues
TTITLE6=Whatever Happened To The Blues
TTITLE7=I Don't Want Nobody To Give Me Nothing
TTITLE8=I'm Going Down Slow
TTITLE9=Nice To Have You Around
TTITLE10=Fade To Black Tie
TTITLE11=Sweet Woman Blues
EXTD=(P) and (C) 1992 YEAR: 1992
EXTT0=
EXTT1=
EXTT2=
EXTT3=
EXTT4=
EXTT5=
EXTT6=
EXTT7=
EXTT8=
EXTT9=
EXTT10=
EXTT11=
PLAYORDER=
